<?xml version="1.0" encoding="utf-8" standalone="no"?>
<!DOCTYPE svg PUBLIC "-//W3C//DTD SVG 1.1//EN"
  "http://www.w3.org/Graphics/SVG/1.1/DTD/svg11.dtd">
<svg xmlns:xlink="http://www.w3.org/1999/xlink" width="1080pt" height="792pt" viewBox="0 0 1080 792" xmlns="http://www.w3.org/2000/svg" version="1.1">
 <metadata>
  <rdf:RDF xmlns:dc="http://purl.org/dc/elements/1.1/" xmlns:cc="http://creativecommons.org/ns#" xmlns:rdf="http://www.w3.org/1999/02/22-rdf-syntax-ns#">
   <cc:Work>
    <dc:type rdf:resource="http://purl.org/dc/dcmitype/StillImage"/>
    <dc:date>2026-02-18T00:19:33.859246</dc:date>
    <dc:format>image/svg+xml</dc:format>
    <dc:creator>
     <cc:Agent>
      <dc:title>Matplotlib v3.10.8, https://matplotlib.org/</dc:title>
     </cc:Agent>
    </dc:creator>
   </cc:Work>
  </rdf:RDF>
 </metadata>
 <defs>
  <style type="text/css">*{stroke-linejoin: round; stroke-linecap: butt}</style>
 </defs>
 <g id="figure_1">
  <g id="patch_1">
   <path d="M 0 792 
L 1080 792 
L 1080 0 
L 0 0 
z
" style="fill: #ffffff"/>
  </g>
  <g id="axes_1">
   <g id="patch_2">
    <path d="M 398.998995 148.559548 
Q 279.339583 309.178682 160.882465 468.183973 
" clip-path="url(#pb5822b3b6c)" style="fill: none; stroke: #4a4a4a; stroke-width: 1.8; stroke-linecap: round"/>
    <path d="M 167.272143 464.963413 
L 160.882465 468.183973 
L 162.139824 461.139894 
z
" clip-path="url(#pb5822b3b6c)" style="fill: #4a4a4a; stroke: #4a4a4a; stroke-width: 1.8; stroke-linecap: round"/>
   </g>
   <g id="patch_3">
    <path d="M 461.783453 398.706084 
Q 433.926074 274.38633 406.508732 152.03034 
" clip-path="url(#pb5822b3b6c)" style="fill: none; stroke: #4a4a4a; stroke-width: 1.8; stroke-linecap: round"/>
    <path d="M 404.785565 158.975172 
L 406.508732 152.03034 
L 411.030698 157.575772 
z
" clip-path="url(#pb5822b3b6c)" style="fill: #4a4a4a; stroke: #4a4a4a; stroke-width: 1.8; stroke-linecap: round"/>
   </g>
   <g id="patch_4">
    <path d="M 468.821731 400.192607 
Q 547.348507 293.945052 624.679134 189.3159 
" clip-path="url(#pb5822b3b6c)" style="fill: none; stroke: #4a4a4a; stroke-width: 1.8; stroke-linecap: round"/>
    <path d="M 618.301747 192.560732 
L 624.679134 189.3159 
L 623.448567 196.364709 
z
" clip-path="url(#pb5822b3b6c)" style="fill: #4a4a4a; stroke: #4a4a4a; stroke-width: 1.8; stroke-linecap: round"/>
   </g>
   <g id="patch_5">
    <path d="M 463.188701 415.796359 
Q 454.96611 561.476957 446.856928 705.148292 
" clip-path="url(#pb5822b3b6c)" style="fill: none; stroke: #4a4a4a; stroke-width: 1.8; stroke-linecap: round"/>
    <path d="M 450.412501 698.938791 
L 446.856928 705.148292 
L 444.022672 698.578133 
z
" clip-path="url(#pb5822b3b6c)" style="fill: #4a4a4a; stroke: #4a4a4a; stroke-width: 1.8; stroke-linecap: round"/>
   </g>
   <g id="patch_6">
    <path d="M 472.325361 407.563391 
Q 553.04991 411.382826 631.764246 415.10715 
" clip-path="url(#pb5822b3b6c)" style="fill: none; stroke: #4a4a4a; stroke-width: 1.8; stroke-linecap: round"/>
    <path d="M 625.522635 411.608252 
L 631.764246 415.10715 
L 625.220161 418.0011 
z
" clip-path="url(#pb5822b3b6c)" style="fill: #4a4a4a; stroke: #4a4a4a; stroke-width: 1.8; stroke-linecap: round"/>
   </g>
   <g id="patch_7">
    <path d="M 638.807653 184.528481 
Q 804.18777 265.081071 967.75863 344.752418 
" clip-path="url(#pb5822b3b6c)" style="fill: none; stroke: #4a4a4a; stroke-width: 1.8; stroke-linecap: round"/>
    <path d="M 963.406119 339.073012 
L 967.75863 344.752418 
L 960.603598 344.826783 
z
" clip-path="url(#pb5822b3b6c)" style="fill: #4a4a4a; stroke: #4a4a4a; stroke-width: 1.8; stroke-linecap: round"/>
   </g>
   <g id="patch_8">
    <path d="M 622.494759 182.2653 
Q 366.831313 228.133769 113.148701 273.646858 
" clip-path="url(#pb5822b3b6c)" style="fill: none; stroke: #4a4a4a; stroke-width: 1.8; stroke-linecap: round"/>
    <path d="M 120.01321 275.666392 
L 113.148701 273.646858 
L 118.883034 269.366971 
z
" clip-path="url(#pb5822b3b6c)" style="fill: #4a4a4a; stroke: #4a4a4a; stroke-width: 1.8; stroke-linecap: round"/>
   </g>
   <g id="patch_9">
    <path d="M 635.788867 410.046418 
Q 450.065349 254.303685 265.883865 99.854062 
" clip-path="url(#pb5822b3b6c)" style="fill: none; stroke: #4a4a4a; stroke-width: 1.8; stroke-linecap: round"/>
    <path d="M 268.731658 106.418365 
L 265.883865 99.854062 
L 272.843983 101.514409 
z
" clip-path="url(#pb5822b3b6c)" style="fill: #4a4a4a; stroke: #4a4a4a; stroke-width: 1.8; stroke-linecap: round"/>
   </g>
   <g id="patch_10">
    <path d="M 649.589941 420.474265 
Q 786.059142 513.097201 920.863187 604.58998 
" clip-path="url(#pb5822b3b6c)" style="fill: none; stroke: #4a4a4a; stroke-width: 1.8; stroke-linecap: round"/>
    <path d="M 917.364737 598.348118 
L 920.863187 604.58998 
L 913.770627 603.643623 
z
" clip-path="url(#pb5822b3b6c)" style="fill: #4a4a4a; stroke: #4a4a4a; stroke-width: 1.8; stroke-linecap: round"/>
   </g>
   <g id="text_1">
    <g id="patch_11">
     <path d="M 277.518027 320.808755 
L 289.962013 304.10516 
Q 291.216606 302.421118 289.532563 301.166526 
L 284.099773 297.119159 
Q 282.41573 295.864567 281.161138 297.548609 
L 268.717152 314.252204 
Q 267.46256 315.936246 269.146602 317.190838 
L 274.579393 321.238205 
Q 276.263435 322.492797 277.518027 320.808755 
z
" clip-path="url(#pb5822b3b6c)" style="fill: #ffffff; stroke: #ffffff; stroke-linejoin: miter"/>
    </g>
    <g clip-path="url(#pb5822b3b6c)">
     <!-- N2 FC -->
     <g transform="translate(274.666558 318.684443) rotate(-53.314312) scale(0.07 -0.07)">
      <defs>
       <path id="DejaVuSans-4e" d="M 628 4666 
L 1478 4666 
L 3547 763 
L 3547 4666 
L 4159 4666 
L 4159 0 
L 3309 0 
L 1241 3903 
L 1241 0 
L 628 0 
L 628 4666 
z
" transform="scale(0.015625)"/>
       <path id="DejaVuSans-32" d="M 1228 531 
L 3431 531 
L 3431 0 
L 469 0 
L 469 531 
Q 828 903 1448 1529 
Q 2069 2156 2228 2338 
Q 2531 2678 2651 2914 
Q 2772 3150 2772 3378 
Q 2772 3750 2511 3984 
Q 2250 4219 1831 4219 
Q 1534 4219 1204 4116 
Q 875 4013 500 3803 
L 500 4441 
Q 881 4594 1212 4672 
Q 1544 4750 1819 4750 
Q 2544 4750 2975 4387 
Q 3406 4025 3406 3419 
Q 3406 3131 3298 2873 
Q 3191 2616 2906 2266 
Q 2828 2175 2409 1742 
Q 1991 1309 1228 531 
z
" transform="scale(0.015625)"/>
       <path id="DejaVuSans-20" transform="scale(0.015625)"/>
       <path id="DejaVuSans-46" d="M 628 4666 
L 3309 4666 
L 3309 4134 
L 1259 4134 
L 1259 2759 
L 3109 2759 
L 3109 2228 
L 1259 2228 
L 1259 0 
L 628 0 
L 628 4666 
z
" transform="scale(0.015625)"/>
       <path id="DejaVuSans-43" d="M 4122 4306 
L 4122 3641 
Q 3803 3938 3442 4084 
Q 3081 4231 2675 4231 
Q 1875 4231 1450 3742 
Q 1025 3253 1025 2328 
Q 1025 1406 1450 917 
Q 1875 428 2675 428 
Q 3081 428 3442 575 
Q 3803 722 4122 1019 
L 4122 359 
Q 3791 134 3420 21 
Q 3050 -91 2638 -91 
Q 1578 -91 968 557 
Q 359 1206 359 2328 
Q 359 3453 968 4101 
Q 1578 4750 2638 4750 
Q 3056 4750 3426 4639 
Q 3797 4528 4122 4306 
z
" transform="scale(0.015625)"/>
      </defs>
      <use xlink:href="#DejaVuSans-4e"/>
      <use xlink:href="#DejaVuSans-32" transform="translate(74.804688 0)"/>
      <use xlink:href="#DejaVuSans-20" transform="translate(138.427734 0)"/>
      <use xlink:href="#DejaVuSans-46" transform="translate(170.214844 0)"/>
      <use xlink:href="#DejaVuSans-43" transform="translate(227.734375 0)"/>
     </g>
    </g>
   </g>
   <g id="text_2">
    <g id="patch_12">
     <path d="M 426.303604 265.465123 
L 430.839422 285.70722 
Q 431.2986 287.756404 433.347784 287.297226 
L 439.958537 285.815899 
Q 442.007721 285.356721 441.548543 283.307536 
L 437.012726 263.06544 
Q 436.553548 261.016255 434.504363 261.475434 
L 427.89361 262.956761 
Q 425.844426 263.415939 426.303604 265.465123 
z
" clip-path="url(#pb5822b3b6c)" style="fill: #ffffff; stroke: #ffffff; stroke-linejoin: miter"/>
    </g>
    <g clip-path="url(#pb5822b3b6c)">
     <!-- N4 FB -->
     <g transform="translate(429.773342 264.687629) rotate(-282.630117) scale(0.07 -0.07)">
      <defs>
       <path id="DejaVuSans-34" d="M 2419 4116 
L 825 1625 
L 2419 1625 
L 2419 4116 
z
M 2253 4666 
L 3047 4666 
L 3047 1625 
L 3713 1625 
L 3713 1100 
L 3047 1100 
L 3047 0 
L 2419 0 
L 2419 1100 
L 313 1100 
L 313 1709 
L 2253 4666 
z
" transform="scale(0.015625)"/>
       <path id="DejaVuSans-42" d="M 1259 2228 
L 1259 519 
L 2272 519 
Q 2781 519 3026 730 
Q 3272 941 3272 1375 
Q 3272 1813 3026 2020 
Q 2781 2228 2272 2228 
L 1259 2228 
z
M 1259 4147 
L 1259 2741 
L 2194 2741 
Q 2656 2741 2882 2914 
Q 3109 3088 3109 3444 
Q 3109 3797 2882 3972 
Q 2656 4147 2194 4147 
L 1259 4147 
z
M 628 4666 
L 2241 4666 
Q 2963 4666 3353 4366 
Q 3744 4066 3744 3513 
Q 3744 3084 3544 2831 
Q 3344 2578 2956 2516 
Q 3422 2416 3680 2098 
Q 3938 1781 3938 1306 
Q 3938 681 3513 340 
Q 3088 0 2303 0 
L 628 0 
L 628 4666 
z
" transform="scale(0.015625)"/>
      </defs>
      <use xlink:href="#DejaVuSans-4e"/>
      <use xlink:href="#DejaVuSans-34" transform="translate(74.804688 0)"/>
      <use xlink:href="#DejaVuSans-20" transform="translate(138.427734 0)"/>
      <use xlink:href="#DejaVuSans-46" transform="translate(170.214844 0)"/>
      <use xlink:href="#DejaVuSans-42" transform="translate(227.734375 0)"/>
     </g>
    </g>
   </g>
   <g id="text_3">
    <g id="patch_13">
     <path d="M 545.596539 305.547663 
L 557.926216 288.865481 
Q 559.174396 287.17668 557.485595 285.9285 
L 552.037455 281.90182 
Q 550.348654 280.65364 549.100474 282.342441 
L 536.770798 299.024623 
Q 535.522618 300.713424 537.211418 301.961603 
L 542.659559 305.988284 
Q 544.34836 307.236463 545.596539 305.547663 
z
" clip-path="url(#pb5822b3b6c)" style="fill: #ffffff; stroke: #ffffff; stroke-linejoin: miter"/>
    </g>
    <g clip-path="url(#pb5822b3b6c)">
     <!-- N5 FB -->
     <g transform="translate(542.737013 303.434208) rotate(-53.532169) scale(0.07 -0.07)">
      <defs>
       <path id="DejaVuSans-35" d="M 691 4666 
L 3169 4666 
L 3169 4134 
L 1269 4134 
L 1269 2991 
Q 1406 3038 1543 3061 
Q 1681 3084 1819 3084 
Q 2600 3084 3056 2656 
Q 3513 2228 3513 1497 
Q 3513 744 3044 326 
Q 2575 -91 1722 -91 
Q 1428 -91 1123 -41 
Q 819 9 494 109 
L 494 744 
Q 775 591 1075 516 
Q 1375 441 1709 441 
Q 2250 441 2565 725 
Q 2881 1009 2881 1497 
Q 2881 1984 2565 2268 
Q 2250 2553 1709 2553 
Q 1456 2553 1204 2497 
Q 953 2441 691 2322 
L 691 4666 
z
" transform="scale(0.015625)"/>
      </defs>
      <use xlink:href="#DejaVuSans-4e"/>
      <use xlink:href="#DejaVuSans-35" transform="translate(74.804688 0)"/>
      <use xlink:href="#DejaVuSans-20" transform="translate(138.427734 0)"/>
      <use xlink:href="#DejaVuSans-46" transform="translate(170.214844 0)"/>
      <use xlink:href="#DejaVuSans-42" transform="translate(227.734375 0)"/>
     </g>
    </g>
   </g>
   <g id="text_4">
    <g id="patch_14">
     <path d="M 459.86024 572.141734 
L 461.029228 551.430635 
Q 461.147569 549.333972 459.050906 549.215631 
L 452.286984 548.833858 
Q 450.190322 548.715517 450.07198 550.81218 
L 448.902992 571.523278 
Q 448.784651 573.619941 450.881314 573.738282 
L 457.645236 574.120056 
Q 459.741899 574.238397 459.86024 572.141734 
z
" clip-path="url(#pb5822b3b6c)" style="fill: #ffffff; stroke: #ffffff; stroke-linejoin: miter"/>
    </g>
    <g clip-path="url(#pb5822b3b6c)">
     <!-- N1 FB -->
     <g transform="translate(456.310109 571.941355) rotate(-86.769505) scale(0.07 -0.07)">
      <defs>
       <path id="DejaVuSans-31" d="M 794 531 
L 1825 531 
L 1825 4091 
L 703 3866 
L 703 4441 
L 1819 4666 
L 2450 4666 
L 2450 531 
L 3481 531 
L 3481 0 
L 794 0 
L 794 531 
z
" transform="scale(0.015625)"/>
      </defs>
      <use xlink:href="#DejaVuSans-4e"/>
      <use xlink:href="#DejaVuSans-31" transform="translate(74.804688 0)"/>
      <use xlink:href="#DejaVuSans-20" transform="translate(138.427734 0)"/>
      <use xlink:href="#DejaVuSans-46" transform="translate(170.214844 0)"/>
      <use xlink:href="#DejaVuSans-42" transform="translate(227.734375 0)"/>
     </g>
    </g>
   </g>
   <g id="text_5">
    <g id="patch_15">
     <path d="M 542.430129 416.37384 
L 563.151011 417.354236 
Q 565.248664 417.453486 565.347913 415.355832 
L 565.668096 408.588715 
Q 565.767345 406.491062 563.669691 406.391813 
L 542.948809 405.411416 
Q 540.851156 405.312167 540.751907 407.40982 
L 540.431725 414.176937 
Q 540.332475 416.274591 542.430129 416.37384 
z
" clip-path="url(#pb5822b3b6c)" style="fill: #ffffff; stroke: #ffffff; stroke-linejoin: miter"/>
    </g>
    <g clip-path="url(#pb5822b3b6c)">
     <!-- N4 FB -->
     <g transform="translate(542.59818 412.822032) rotate(-357.291103) scale(0.07 -0.07)">
      <use xlink:href="#DejaVuSans-4e"/>
      <use xlink:href="#DejaVuSans-34" transform="translate(74.804688 0)"/>
      <use xlink:href="#DejaVuSans-20" transform="translate(138.427734 0)"/>
      <use xlink:href="#DejaVuSans-46" transform="translate(170.214844 0)"/>
      <use xlink:href="#DejaVuSans-42" transform="translate(227.734375 0)"/>
     </g>
    </g>
   </g>
   <g id="text_6">
    <g id="patch_16">
     <path d="M 792.421813 265.453813 
L 811.147978 274.574867 
Q 813.035934 275.494444 813.955511 273.606488 
L 816.922105 267.515863 
Q 817.841682 265.627907 815.953726 264.70833 
L 797.227561 255.587276 
Q 795.339605 254.667699 794.420028 256.555655 
L 791.453434 262.64628 
Q 790.533857 264.534236 792.421813 265.453813 
z
" clip-path="url(#pb5822b3b6c)" style="fill: #ffffff; stroke: #ffffff; stroke-linejoin: miter"/>
    </g>
    <g clip-path="url(#pb5822b3b6c)">
     <!-- N1 FC -->
     <g transform="translate(793.978868 262.25707) rotate(-334.030425) scale(0.07 -0.07)">
      <use xlink:href="#DejaVuSans-4e"/>
      <use xlink:href="#DejaVuSans-31" transform="translate(74.804688 0)"/>
      <use xlink:href="#DejaVuSans-20" transform="translate(138.427734 0)"/>
      <use xlink:href="#DejaVuSans-46" transform="translate(170.214844 0)"/>
      <use xlink:href="#DejaVuSans-43" transform="translate(227.734375 0)"/>
     </g>
    </g>
   </g>
   <g id="text_7">
    <g id="patch_17">
     <path d="M 357.549308 235.374007 
L 378.051339 231.695746 
Q 380.118336 231.324907 379.747497 229.25791 
L 378.551154 222.58969 
Q 378.180315 220.522692 376.113318 220.893531 
L 355.611287 224.571792 
Q 353.54429 224.942631 353.915129 227.009629 
L 355.111471 233.677848 
Q 355.482311 235.744846 357.549308 235.374007 
z
" clip-path="url(#pb5822b3b6c)" style="fill: #ffffff; stroke: #ffffff; stroke-linejoin: miter"/>
    </g>
    <g clip-path="url(#pb5822b3b6c)">
     <!-- N2 FC -->
     <g transform="translate(356.921392 231.874106) rotate(-10.171203) scale(0.07 -0.07)">
      <use xlink:href="#DejaVuSans-4e"/>
      <use xlink:href="#DejaVuSans-32" transform="translate(74.804688 0)"/>
      <use xlink:href="#DejaVuSans-20" transform="translate(138.427734 0)"/>
      <use xlink:href="#DejaVuSans-46" transform="translate(170.214844 0)"/>
      <use xlink:href="#DejaVuSans-43" transform="translate(227.734375 0)"/>
     </g>
    </g>
   </g>
   <g id="text_8">
    <g id="patch_18">
     <path d="M 438.591954 251.843768 
L 454.486949 265.172882 
Q 456.09606 266.522238 457.445416 264.913128 
L 461.798497 259.72207 
Q 463.147854 258.11296 461.538743 256.763603 
L 445.643748 243.434489 
Q 444.034638 242.085133 442.685281 243.694243 
L 438.332201 248.885301 
Q 436.982844 250.494411 438.591954 251.843768 
z
" clip-path="url(#pb5822b3b6c)" style="fill: #ffffff; stroke: #ffffff; stroke-linejoin: miter"/>
    </g>
    <g clip-path="url(#pb5822b3b6c)">
     <!-- N1 FB -->
     <g transform="translate(440.876724 249.119175) rotate(-320.01771) scale(0.07 -0.07)">
      <use xlink:href="#DejaVuSans-4e"/>
      <use xlink:href="#DejaVuSans-31" transform="translate(74.804688 0)"/>
      <use xlink:href="#DejaVuSans-20" transform="translate(138.427734 0)"/>
      <use xlink:href="#DejaVuSans-46" transform="translate(170.214844 0)"/>
      <use xlink:href="#DejaVuSans-42" transform="translate(227.734375 0)"/>
     </g>
    </g>
   </g>
   <g id="text_9">
    <g id="patch_19">
     <path d="M 774.395508 511.812833 
L 791.559616 523.462275 
Q 793.297204 524.641592 794.476521 522.904005 
L 798.281047 517.298474 
Q 799.460365 515.560887 797.722777 514.38157 
L 780.558668 502.732127 
Q 778.821081 501.55281 777.641764 503.290397 
L 773.837237 508.895928 
Q 772.65792 510.633515 774.395508 511.812833 
z
" clip-path="url(#pb5822b3b6c)" style="fill: #ffffff; stroke: #ffffff; stroke-linejoin: miter"/>
    </g>
    <g clip-path="url(#pb5822b3b6c)">
     <!-- N2 FB -->
     <g transform="translate(776.392362 508.870698) rotate(-325.834891) scale(0.07 -0.07)">
      <use xlink:href="#DejaVuSans-4e"/>
      <use xlink:href="#DejaVuSans-32" transform="translate(74.804688 0)"/>
      <use xlink:href="#DejaVuSans-20" transform="translate(138.427734 0)"/>
      <use xlink:href="#DejaVuSans-46" transform="translate(170.214844 0)"/>
      <use xlink:href="#DejaVuSans-42" transform="translate(227.734375 0)"/>
     </g>
    </g>
   </g>
   <g id="PathCollection_1">
    <defs>
     <path id="m8bde7088f7" d="M -25.495098 25.495098 
L 25.495098 25.495098 
L 25.495098 -25.495098 
L -25.495098 -25.495098 
z
" style="stroke: #8ecae6"/>
    </defs>
    <g clip-path="url(#pb5822b3b6c)">
     <use xlink:href="#m8bde7088f7" x="404.174353" y="141.612652" style="fill: #8ecae6; stroke: #8ecae6"/>
     <use xlink:href="#m8bde7088f7" x="977.355372" y="349.426755" style="fill: #8ecae6; stroke: #8ecae6"/>
     <use xlink:href="#m8bde7088f7" x="463.676488" y="407.154174" style="fill: #8ecae6; stroke: #8ecae6"/>
     <use xlink:href="#m8bde7088f7" x="102.644628" y="275.531389" style="fill: #8ecae6; stroke: #8ecae6"/>
     <use xlink:href="#m8bde7088f7" x="631.020725" y="180.73566" style="fill: #8ecae6; stroke: #8ecae6"/>
     <use xlink:href="#m8bde7088f7" x="257.704469" y="92.995041" style="fill: #8ecae6; stroke: #8ecae6"/>
     <use xlink:href="#m8bde7088f7" x="929.69378" y="610.583387" style="fill: #8ecae6; stroke: #8ecae6"/>
     <use xlink:href="#m8bde7088f7" x="446.255438" y="715.804959" style="fill: #8ecae6; stroke: #8ecae6"/>
     <use xlink:href="#m8bde7088f7" x="154.507635" y="476.740923" style="fill: #8ecae6; stroke: #8ecae6"/>
     <use xlink:href="#m8bde7088f7" x="642.425325" y="415.611572" style="fill: #8ecae6; stroke: #8ecae6"/>
    </g>
   </g>
   <g id="text_10">
    <g clip-path="url(#pb5822b3b6c)">
     <!-- Control_Panel -->
     <g transform="translate(373.181228 143.708902) scale(0.08 -0.08)">
      <defs>
       <path id="DejaVuSans-Bold-43" d="M 4288 256 
Q 3956 84 3597 -3 
Q 3238 -91 2847 -91 
Q 1681 -91 1000 561 
Q 319 1213 319 2328 
Q 319 3447 1000 4098 
Q 1681 4750 2847 4750 
Q 3238 4750 3597 4662 
Q 3956 4575 4288 4403 
L 4288 3438 
Q 3953 3666 3628 3772 
Q 3303 3878 2944 3878 
Q 2300 3878 1931 3465 
Q 1563 3053 1563 2328 
Q 1563 1606 1931 1193 
Q 2300 781 2944 781 
Q 3303 781 3628 887 
Q 3953 994 4288 1222 
L 4288 256 
z
" transform="scale(0.015625)"/>
       <path id="DejaVuSans-Bold-6f" d="M 2203 2784 
Q 1831 2784 1636 2517 
Q 1441 2250 1441 1747 
Q 1441 1244 1636 976 
Q 1831 709 2203 709 
Q 2569 709 2762 976 
Q 2956 1244 2956 1747 
Q 2956 2250 2762 2517 
Q 2569 2784 2203 2784 
z
M 2203 3584 
Q 3106 3584 3614 3096 
Q 4122 2609 4122 1747 
Q 4122 884 3614 396 
Q 3106 -91 2203 -91 
Q 1297 -91 786 396 
Q 275 884 275 1747 
Q 275 2609 786 3096 
Q 1297 3584 2203 3584 
z
" transform="scale(0.015625)"/>
       <path id="DejaVuSans-Bold-6e" d="M 4056 2131 
L 4056 0 
L 2931 0 
L 2931 347 
L 2931 1631 
Q 2931 2084 2911 2256 
Q 2891 2428 2841 2509 
Q 2775 2619 2662 2680 
Q 2550 2741 2406 2741 
Q 2056 2741 1856 2470 
Q 1656 2200 1656 1722 
L 1656 0 
L 538 0 
L 538 3500 
L 1656 3500 
L 1656 2988 
Q 1909 3294 2193 3439 
Q 2478 3584 2822 3584 
Q 3428 3584 3742 3212 
Q 4056 2841 4056 2131 
z
" transform="scale(0.015625)"/>
       <path id="DejaVuSans-Bold-74" d="M 1759 4494 
L 1759 3500 
L 2913 3500 
L 2913 2700 
L 1759 2700 
L 1759 1216 
Q 1759 972 1856 886 
Q 1953 800 2241 800 
L 2816 800 
L 2816 0 
L 1856 0 
Q 1194 0 917 276 
Q 641 553 641 1216 
L 641 2700 
L 84 2700 
L 84 3500 
L 641 3500 
L 641 4494 
L 1759 4494 
z
" transform="scale(0.015625)"/>
       <path id="DejaVuSans-Bold-72" d="M 3138 2547 
Q 2991 2616 2845 2648 
Q 2700 2681 2553 2681 
Q 2122 2681 1889 2404 
Q 1656 2128 1656 1613 
L 1656 0 
L 538 0 
L 538 3500 
L 1656 3500 
L 1656 2925 
Q 1872 3269 2151 3426 
Q 2431 3584 2822 3584 
Q 2878 3584 2943 3579 
Q 3009 3575 3134 3559 
L 3138 2547 
z
" transform="scale(0.015625)"/>
       <path id="DejaVuSans-Bold-6c" d="M 538 4863 
L 1656 4863 
L 1656 0 
L 538 0 
L 538 4863 
z
" transform="scale(0.015625)"/>
       <path id="DejaVuSans-Bold-5f" d="M 3200 -916 
L 3200 -1509 
L 0 -1509 
L 0 -916 
L 3200 -916 
z
" transform="scale(0.015625)"/>
       <path id="DejaVuSans-Bold-50" d="M 588 4666 
L 2584 4666 
Q 3475 4666 3951 4270 
Q 4428 3875 4428 3144 
Q 4428 2409 3951 2014 
Q 3475 1619 2584 1619 
L 1791 1619 
L 1791 0 
L 588 0 
L 588 4666 
z
M 1791 3794 
L 1791 2491 
L 2456 2491 
Q 2806 2491 2997 2661 
Q 3188 2831 3188 3144 
Q 3188 3456 2997 3625 
Q 2806 3794 2456 3794 
L 1791 3794 
z
" transform="scale(0.015625)"/>
       <path id="DejaVuSans-Bold-61" d="M 2106 1575 
Q 1756 1575 1579 1456 
Q 1403 1338 1403 1106 
Q 1403 894 1545 773 
Q 1688 653 1941 653 
Q 2256 653 2472 879 
Q 2688 1106 2688 1447 
L 2688 1575 
L 2106 1575 
z
M 3816 1997 
L 3816 0 
L 2688 0 
L 2688 519 
Q 2463 200 2181 54 
Q 1900 -91 1497 -91 
Q 953 -91 614 226 
Q 275 544 275 1050 
Q 275 1666 698 1953 
Q 1122 2241 2028 2241 
L 2688 2241 
L 2688 2328 
Q 2688 2594 2478 2717 
Q 2269 2841 1825 2841 
Q 1466 2841 1156 2769 
Q 847 2697 581 2553 
L 581 3406 
Q 941 3494 1303 3539 
Q 1666 3584 2028 3584 
Q 2975 3584 3395 3211 
Q 3816 2838 3816 1997 
z
" transform="scale(0.015625)"/>
       <path id="DejaVuSans-Bold-65" d="M 4031 1759 
L 4031 1441 
L 1416 1441 
Q 1456 1047 1700 850 
Q 1944 653 2381 653 
Q 2734 653 3104 758 
Q 3475 863 3866 1075 
L 3866 213 
Q 3469 63 3072 -14 
Q 2675 -91 2278 -91 
Q 1328 -91 801 392 
Q 275 875 275 1747 
Q 275 2603 792 3093 
Q 1309 3584 2216 3584 
Q 3041 3584 3536 3087 
Q 4031 2591 4031 1759 
z
M 2881 2131 
Q 2881 2450 2695 2645 
Q 2509 2841 2209 2841 
Q 1884 2841 1681 2658 
Q 1478 2475 1428 2131 
L 2881 2131 
z
" transform="scale(0.015625)"/>
      </defs>
      <use xlink:href="#DejaVuSans-Bold-43"/>
      <use xlink:href="#DejaVuSans-Bold-6f" transform="translate(73.388672 0)"/>
      <use xlink:href="#DejaVuSans-Bold-6e" transform="translate(142.089844 0)"/>
      <use xlink:href="#DejaVuSans-Bold-74" transform="translate(213.28125 0)"/>
      <use xlink:href="#DejaVuSans-Bold-72" transform="translate(261.083984 0)"/>
      <use xlink:href="#DejaVuSans-Bold-6f" transform="translate(310.400391 0)"/>
      <use xlink:href="#DejaVuSans-Bold-6c" transform="translate(379.101562 0)"/>
      <use xlink:href="#DejaVuSans-Bold-5f" transform="translate(413.378906 0)"/>
      <use xlink:href="#DejaVuSans-Bold-50" transform="translate(463.378906 0)"/>
      <use xlink:href="#DejaVuSans-Bold-61" transform="translate(534.044922 0)"/>
      <use xlink:href="#DejaVuSans-Bold-6e" transform="translate(601.525391 0)"/>
      <use xlink:href="#DejaVuSans-Bold-65" transform="translate(672.716797 0)"/>
      <use xlink:href="#DejaVuSans-Bold-6c" transform="translate(740.539062 0)"/>
     </g>
    </g>
   </g>
   <g id="text_11">
    <g clip-path="url(#pb5822b3b6c)">
     <!-- DownloadNewData -->
     <g transform="translate(934.674122 351.634255) scale(0.08 -0.08)">
      <defs>
       <path id="DejaVuSans-Bold-44" d="M 1791 3756 
L 1791 909 
L 2222 909 
Q 2959 909 3348 1275 
Q 3738 1641 3738 2338 
Q 3738 3031 3350 3393 
Q 2963 3756 2222 3756 
L 1791 3756 
z
M 588 4666 
L 1856 4666 
Q 2919 4666 3439 4514 
Q 3959 4363 4331 4000 
Q 4659 3684 4818 3271 
Q 4978 2859 4978 2338 
Q 4978 1809 4818 1395 
Q 4659 981 4331 666 
Q 3956 303 3431 151 
Q 2906 0 1856 0 
L 588 0 
L 588 4666 
z
" transform="scale(0.015625)"/>
       <path id="DejaVuSans-Bold-77" d="M 225 3500 
L 1313 3500 
L 1900 1088 
L 2491 3500 
L 3425 3500 
L 4013 1113 
L 4603 3500 
L 5691 3500 
L 4769 0 
L 3547 0 
L 2956 2406 
L 2369 0 
L 1147 0 
L 225 3500 
z
" transform="scale(0.015625)"/>
       <path id="DejaVuSans-Bold-64" d="M 2919 2988 
L 2919 4863 
L 4044 4863 
L 4044 0 
L 2919 0 
L 2919 506 
Q 2688 197 2409 53 
Q 2131 -91 1766 -91 
Q 1119 -91 703 423 
Q 288 938 288 1747 
Q 288 2556 703 3070 
Q 1119 3584 1766 3584 
Q 2128 3584 2408 3439 
Q 2688 3294 2919 2988 
z
M 2181 722 
Q 2541 722 2730 984 
Q 2919 1247 2919 1747 
Q 2919 2247 2730 2509 
Q 2541 2772 2181 2772 
Q 1825 2772 1636 2509 
Q 1447 2247 1447 1747 
Q 1447 1247 1636 984 
Q 1825 722 2181 722 
z
" transform="scale(0.015625)"/>
       <path id="DejaVuSans-Bold-4e" d="M 588 4666 
L 1931 4666 
L 3628 1466 
L 3628 4666 
L 4769 4666 
L 4769 0 
L 3425 0 
L 1728 3200 
L 1728 0 
L 588 0 
L 588 4666 
z
" transform="scale(0.015625)"/>
      </defs>
      <use xlink:href="#DejaVuSans-Bold-44"/>
      <use xlink:href="#DejaVuSans-Bold-6f" transform="translate(83.007812 0)"/>
      <use xlink:href="#DejaVuSans-Bold-77" transform="translate(151.708984 0)"/>
      <use xlink:href="#DejaVuSans-Bold-6e" transform="translate(244.091797 0)"/>
      <use xlink:href="#DejaVuSans-Bold-6c" transform="translate(315.283203 0)"/>
      <use xlink:href="#DejaVuSans-Bold-6f" transform="translate(349.560547 0)"/>
      <use xlink:href="#DejaVuSans-Bold-61" transform="translate(418.261719 0)"/>
      <use xlink:href="#DejaVuSans-Bold-64" transform="translate(485.742188 0)"/>
      <use xlink:href="#DejaVuSans-Bold-4e" transform="translate(557.324219 0)"/>
      <use xlink:href="#DejaVuSans-Bold-65" transform="translate(641.015625 0)"/>
      <use xlink:href="#DejaVuSans-Bold-77" transform="translate(708.837891 0)"/>
      <use xlink:href="#DejaVuSans-Bold-44" transform="translate(801.220703 0)"/>
      <use xlink:href="#DejaVuSans-Bold-61" transform="translate(884.228516 0)"/>
      <use xlink:href="#DejaVuSans-Bold-74" transform="translate(951.708984 0)"/>
      <use xlink:href="#DejaVuSans-Bold-61" transform="translate(999.511719 0)"/>
     </g>
    </g>
   </g>
   <g id="text_12">
    <g clip-path="url(#pb5822b3b6c)">
     <!-- Main -->
     <g transform="translate(452.777738 409.361674) scale(0.08 -0.08)">
      <defs>
       <path id="DejaVuSans-Bold-4d" d="M 588 4666 
L 2119 4666 
L 3181 2169 
L 4250 4666 
L 5778 4666 
L 5778 0 
L 4641 0 
L 4641 3413 
L 3566 897 
L 2803 897 
L 1728 3413 
L 1728 0 
L 588 0 
L 588 4666 
z
" transform="scale(0.015625)"/>
       <path id="DejaVuSans-Bold-69" d="M 538 3500 
L 1656 3500 
L 1656 0 
L 538 0 
L 538 3500 
z
M 538 4863 
L 1656 4863 
L 1656 3950 
L 538 3950 
L 538 4863 
z
" transform="scale(0.015625)"/>
      </defs>
      <use xlink:href="#DejaVuSans-Bold-4d"/>
      <use xlink:href="#DejaVuSans-Bold-61" transform="translate(99.511719 0)"/>
      <use xlink:href="#DejaVuSans-Bold-69" transform="translate(166.992188 0)"/>
      <use xlink:href="#DejaVuSans-Bold-6e" transform="translate(201.269531 0)"/>
     </g>
    </g>
   </g>
   <g id="text_13">
    <g clip-path="url(#pb5822b3b6c)">
     <!-- PushDataToStation -->
     <g transform="translate(59.688378 277.738889) scale(0.08 -0.08)">
      <defs>
       <path id="DejaVuSans-Bold-75" d="M 500 1363 
L 500 3500 
L 1625 3500 
L 1625 3150 
Q 1625 2866 1622 2436 
Q 1619 2006 1619 1863 
Q 1619 1441 1641 1255 
Q 1663 1069 1716 984 
Q 1784 875 1895 815 
Q 2006 756 2150 756 
Q 2500 756 2700 1025 
Q 2900 1294 2900 1772 
L 2900 3500 
L 4019 3500 
L 4019 0 
L 2900 0 
L 2900 506 
Q 2647 200 2364 54 
Q 2081 -91 1741 -91 
Q 1134 -91 817 281 
Q 500 653 500 1363 
z
" transform="scale(0.015625)"/>
       <path id="DejaVuSans-Bold-73" d="M 3272 3391 
L 3272 2541 
Q 2913 2691 2578 2766 
Q 2244 2841 1947 2841 
Q 1628 2841 1473 2761 
Q 1319 2681 1319 2516 
Q 1319 2381 1436 2309 
Q 1553 2238 1856 2203 
L 2053 2175 
Q 2913 2066 3209 1816 
Q 3506 1566 3506 1031 
Q 3506 472 3093 190 
Q 2681 -91 1863 -91 
Q 1516 -91 1145 -36 
Q 775 19 384 128 
L 384 978 
Q 719 816 1070 734 
Q 1422 653 1784 653 
Q 2113 653 2278 743 
Q 2444 834 2444 1013 
Q 2444 1163 2330 1236 
Q 2216 1309 1875 1350 
L 1678 1375 
Q 931 1469 631 1722 
Q 331 1975 331 2491 
Q 331 3047 712 3315 
Q 1094 3584 1881 3584 
Q 2191 3584 2531 3537 
Q 2872 3491 3272 3391 
z
" transform="scale(0.015625)"/>
       <path id="DejaVuSans-Bold-68" d="M 4056 2131 
L 4056 0 
L 2931 0 
L 2931 347 
L 2931 1625 
Q 2931 2084 2911 2256 
Q 2891 2428 2841 2509 
Q 2775 2619 2662 2680 
Q 2550 2741 2406 2741 
Q 2056 2741 1856 2470 
Q 1656 2200 1656 1722 
L 1656 0 
L 538 0 
L 538 4863 
L 1656 4863 
L 1656 2988 
Q 1909 3294 2193 3439 
Q 2478 3584 2822 3584 
Q 3428 3584 3742 3212 
Q 4056 2841 4056 2131 
z
" transform="scale(0.015625)"/>
       <path id="DejaVuSans-Bold-54" d="M 31 4666 
L 4331 4666 
L 4331 3756 
L 2784 3756 
L 2784 0 
L 1581 0 
L 1581 3756 
L 31 3756 
L 31 4666 
z
" transform="scale(0.015625)"/>
       <path id="DejaVuSans-Bold-53" d="M 3834 4519 
L 3834 3531 
Q 3450 3703 3084 3790 
Q 2719 3878 2394 3878 
Q 1963 3878 1756 3759 
Q 1550 3641 1550 3391 
Q 1550 3203 1689 3098 
Q 1828 2994 2194 2919 
L 2706 2816 
Q 3484 2659 3812 2340 
Q 4141 2022 4141 1434 
Q 4141 663 3683 286 
Q 3225 -91 2284 -91 
Q 1841 -91 1394 -6 
Q 947 78 500 244 
L 500 1259 
Q 947 1022 1364 901 
Q 1781 781 2169 781 
Q 2563 781 2772 912 
Q 2981 1044 2981 1288 
Q 2981 1506 2839 1625 
Q 2697 1744 2272 1838 
L 1806 1941 
Q 1106 2091 782 2419 
Q 459 2747 459 3303 
Q 459 4000 909 4375 
Q 1359 4750 2203 4750 
Q 2588 4750 2994 4692 
Q 3400 4634 3834 4519 
z
" transform="scale(0.015625)"/>
      </defs>
      <use xlink:href="#DejaVuSans-Bold-50"/>
      <use xlink:href="#DejaVuSans-Bold-75" transform="translate(73.291016 0)"/>
      <use xlink:href="#DejaVuSans-Bold-73" transform="translate(144.482422 0)"/>
      <use xlink:href="#DejaVuSans-Bold-68" transform="translate(204.003906 0)"/>
      <use xlink:href="#DejaVuSans-Bold-44" transform="translate(275.195312 0)"/>
      <use xlink:href="#DejaVuSans-Bold-61" transform="translate(358.203125 0)"/>
      <use xlink:href="#DejaVuSans-Bold-74" transform="translate(425.683594 0)"/>
      <use xlink:href="#DejaVuSans-Bold-61" transform="translate(473.486328 0)"/>
      <use xlink:href="#DejaVuSans-Bold-54" transform="translate(540.966797 0)"/>
      <use xlink:href="#DejaVuSans-Bold-6f" transform="translate(595.929688 0)"/>
      <use xlink:href="#DejaVuSans-Bold-53" transform="translate(664.630859 0)"/>
      <use xlink:href="#DejaVuSans-Bold-74" transform="translate(736.652344 0)"/>
      <use xlink:href="#DejaVuSans-Bold-61" transform="translate(784.455078 0)"/>
      <use xlink:href="#DejaVuSans-Bold-74" transform="translate(851.935547 0)"/>
      <use xlink:href="#DejaVuSans-Bold-69" transform="translate(899.738281 0)"/>
      <use xlink:href="#DejaVuSans-Bold-6f" transform="translate(934.015625 0)"/>
      <use xlink:href="#DejaVuSans-Bold-6e" transform="translate(1002.716797 0)"/>
     </g>
    </g>
   </g>
   <g id="text_14">
    <g clip-path="url(#pb5822b3b6c)">
     <!-- Sequence_Data_Management -->
     <g transform="translate(564.99635 182.761285) scale(0.08 -0.08)">
      <defs>
       <path id="DejaVuSans-Bold-71" d="M 2181 2772 
Q 1825 2772 1636 2509 
Q 1447 2247 1447 1747 
Q 1447 1247 1636 984 
Q 1825 722 2181 722 
Q 2541 722 2730 984 
Q 2919 1247 2919 1747 
Q 2919 2247 2730 2509 
Q 2541 2772 2181 2772 
z
M 2919 506 
Q 2688 197 2409 53 
Q 2131 -91 1766 -91 
Q 1119 -91 703 423 
Q 288 938 288 1747 
Q 288 2556 703 3067 
Q 1119 3578 1766 3578 
Q 2131 3578 2409 3434 
Q 2688 3291 2919 2981 
L 2919 3500 
L 4044 3500 
L 4044 -1331 
L 2919 -1331 
L 2919 506 
z
" transform="scale(0.015625)"/>
       <path id="DejaVuSans-Bold-63" d="M 3366 3391 
L 3366 2478 
Q 3138 2634 2908 2709 
Q 2678 2784 2431 2784 
Q 1963 2784 1702 2511 
Q 1441 2238 1441 1747 
Q 1441 1256 1702 982 
Q 1963 709 2431 709 
Q 2694 709 2930 787 
Q 3166 866 3366 1019 
L 3366 103 
Q 3103 6 2833 -42 
Q 2563 -91 2291 -91 
Q 1344 -91 809 395 
Q 275 881 275 1747 
Q 275 2613 809 3098 
Q 1344 3584 2291 3584 
Q 2566 3584 2833 3536 
Q 3100 3488 3366 3391 
z
" transform="scale(0.015625)"/>
       <path id="DejaVuSans-Bold-67" d="M 2919 594 
Q 2688 288 2409 144 
Q 2131 0 1766 0 
Q 1125 0 706 504 
Q 288 1009 288 1791 
Q 288 2575 706 3076 
Q 1125 3578 1766 3578 
Q 2131 3578 2409 3434 
Q 2688 3291 2919 2981 
L 2919 3500 
L 4044 3500 
L 4044 353 
Q 4044 -491 3511 -936 
Q 2978 -1381 1966 -1381 
Q 1638 -1381 1331 -1331 
Q 1025 -1281 716 -1178 
L 716 -306 
Q 1009 -475 1290 -558 
Q 1572 -641 1856 -641 
Q 2406 -641 2662 -400 
Q 2919 -159 2919 353 
L 2919 594 
z
M 2181 2772 
Q 1834 2772 1640 2515 
Q 1447 2259 1447 1791 
Q 1447 1309 1634 1061 
Q 1822 813 2181 813 
Q 2531 813 2725 1069 
Q 2919 1325 2919 1791 
Q 2919 2259 2725 2515 
Q 2531 2772 2181 2772 
z
" transform="scale(0.015625)"/>
       <path id="DejaVuSans-Bold-6d" d="M 3781 2919 
Q 3994 3244 4286 3414 
Q 4578 3584 4928 3584 
Q 5531 3584 5847 3212 
Q 6163 2841 6163 2131 
L 6163 0 
L 5038 0 
L 5038 1825 
Q 5041 1866 5042 1909 
Q 5044 1953 5044 2034 
Q 5044 2406 4934 2573 
Q 4825 2741 4581 2741 
Q 4263 2741 4089 2478 
Q 3916 2216 3909 1719 
L 3909 0 
L 2784 0 
L 2784 1825 
Q 2784 2406 2684 2573 
Q 2584 2741 2328 2741 
Q 2006 2741 1831 2477 
Q 1656 2213 1656 1722 
L 1656 0 
L 531 0 
L 531 3500 
L 1656 3500 
L 1656 2988 
Q 1863 3284 2130 3434 
Q 2397 3584 2719 3584 
Q 3081 3584 3359 3409 
Q 3638 3234 3781 2919 
z
" transform="scale(0.015625)"/>
      </defs>
      <use xlink:href="#DejaVuSans-Bold-53"/>
      <use xlink:href="#DejaVuSans-Bold-65" transform="translate(72.021484 0)"/>
      <use xlink:href="#DejaVuSans-Bold-71" transform="translate(139.84375 0)"/>
      <use xlink:href="#DejaVuSans-Bold-75" transform="translate(211.425781 0)"/>
      <use xlink:href="#DejaVuSans-Bold-65" transform="translate(282.617188 0)"/>
      <use xlink:href="#DejaVuSans-Bold-6e" transform="translate(350.439453 0)"/>
      <use xlink:href="#DejaVuSans-Bold-63" transform="translate(421.630859 0)"/>
      <use xlink:href="#DejaVuSans-Bold-65" transform="translate(480.908203 0)"/>
      <use xlink:href="#DejaVuSans-Bold-5f" transform="translate(548.730469 0)"/>
      <use xlink:href="#DejaVuSans-Bold-44" transform="translate(598.730469 0)"/>
      <use xlink:href="#DejaVuSans-Bold-61" transform="translate(681.738281 0)"/>
      <use xlink:href="#DejaVuSans-Bold-74" transform="translate(749.21875 0)"/>
      <use xlink:href="#DejaVuSans-Bold-61" transform="translate(797.021484 0)"/>
      <use xlink:href="#DejaVuSans-Bold-5f" transform="translate(864.501953 0)"/>
      <use xlink:href="#DejaVuSans-Bold-4d" transform="translate(914.501953 0)"/>
      <use xlink:href="#DejaVuSans-Bold-61" transform="translate(1014.013672 0)"/>
      <use xlink:href="#DejaVuSans-Bold-6e" transform="translate(1081.494141 0)"/>
      <use xlink:href="#DejaVuSans-Bold-61" transform="translate(1152.685547 0)"/>
      <use xlink:href="#DejaVuSans-Bold-67" transform="translate(1220.166016 0)"/>
      <use xlink:href="#DejaVuSans-Bold-65" transform="translate(1291.748047 0)"/>
      <use xlink:href="#DejaVuSans-Bold-6d" transform="translate(1359.570312 0)"/>
      <use xlink:href="#DejaVuSans-Bold-65" transform="translate(1463.769531 0)"/>
      <use xlink:href="#DejaVuSans-Bold-6e" transform="translate(1531.591797 0)"/>
      <use xlink:href="#DejaVuSans-Bold-74" transform="translate(1602.783203 0)"/>
     </g>
    </g>
   </g>
   <g id="text_15">
    <g clip-path="url(#pb5822b3b6c)">
     <!-- StationConveyorControl -->
     <g transform="translate(203.618844 95.171291) scale(0.08 -0.08)">
      <defs>
       <path id="DejaVuSans-Bold-76" d="M 97 3500 
L 1216 3500 
L 2088 1081 
L 2956 3500 
L 4078 3500 
L 2700 0 
L 1472 0 
L 97 3500 
z
" transform="scale(0.015625)"/>
       <path id="DejaVuSans-Bold-79" d="M 78 3500 
L 1197 3500 
L 2138 1125 
L 2938 3500 
L 4056 3500 
L 2584 -331 
Q 2363 -916 2067 -1148 
Q 1772 -1381 1288 -1381 
L 641 -1381 
L 641 -647 
L 991 -647 
Q 1275 -647 1404 -556 
Q 1534 -466 1606 -231 
L 1638 -134 
L 78 3500 
z
" transform="scale(0.015625)"/>
      </defs>
      <use xlink:href="#DejaVuSans-Bold-53"/>
      <use xlink:href="#DejaVuSans-Bold-74" transform="translate(72.021484 0)"/>
      <use xlink:href="#DejaVuSans-Bold-61" transform="translate(119.824219 0)"/>
      <use xlink:href="#DejaVuSans-Bold-74" transform="translate(187.304688 0)"/>
      <use xlink:href="#DejaVuSans-Bold-69" transform="translate(235.107422 0)"/>
      <use xlink:href="#DejaVuSans-Bold-6f" transform="translate(269.384766 0)"/>
      <use xlink:href="#DejaVuSans-Bold-6e" transform="translate(338.085938 0)"/>
      <use xlink:href="#DejaVuSans-Bold-43" transform="translate(409.277344 0)"/>
      <use xlink:href="#DejaVuSans-Bold-6f" transform="translate(482.666016 0)"/>
      <use xlink:href="#DejaVuSans-Bold-6e" transform="translate(551.367188 0)"/>
      <use xlink:href="#DejaVuSans-Bold-76" transform="translate(622.558594 0)"/>
      <use xlink:href="#DejaVuSans-Bold-65" transform="translate(687.744141 0)"/>
      <use xlink:href="#DejaVuSans-Bold-79" transform="translate(755.566406 0)"/>
      <use xlink:href="#DejaVuSans-Bold-6f" transform="translate(820.751953 0)"/>
      <use xlink:href="#DejaVuSans-Bold-72" transform="translate(889.453125 0)"/>
      <use xlink:href="#DejaVuSans-Bold-43" transform="translate(938.769531 0)"/>
      <use xlink:href="#DejaVuSans-Bold-6f" transform="translate(1012.158203 0)"/>
      <use xlink:href="#DejaVuSans-Bold-6e" transform="translate(1080.859375 0)"/>
      <use xlink:href="#DejaVuSans-Bold-74" transform="translate(1152.050781 0)"/>
      <use xlink:href="#DejaVuSans-Bold-72" transform="translate(1199.853516 0)"/>
      <use xlink:href="#DejaVuSans-Bold-6f" transform="translate(1249.169922 0)"/>
      <use xlink:href="#DejaVuSans-Bold-6c" transform="translate(1317.871094 0)"/>
     </g>
    </g>
   </g>
   <g id="text_16">
    <g clip-path="url(#pb5822b3b6c)">
     <!-- StationProcessControl -->
     <g transform="translate(879.29003 612.790887) scale(0.08 -0.08)">
      <use xlink:href="#DejaVuSans-Bold-53"/>
      <use xlink:href="#DejaVuSans-Bold-74" transform="translate(72.021484 0)"/>
      <use xlink:href="#DejaVuSans-Bold-61" transform="translate(119.824219 0)"/>
      <use xlink:href="#DejaVuSans-Bold-74" transform="translate(187.304688 0)"/>
      <use xlink:href="#DejaVuSans-Bold-69" transform="translate(235.107422 0)"/>
      <use xlink:href="#DejaVuSans-Bold-6f" transform="translate(269.384766 0)"/>
      <use xlink:href="#DejaVuSans-Bold-6e" transform="translate(338.085938 0)"/>
      <use xlink:href="#DejaVuSans-Bold-50" transform="translate(409.277344 0)"/>
      <use xlink:href="#DejaVuSans-Bold-72" transform="translate(482.568359 0)"/>
      <use xlink:href="#DejaVuSans-Bold-6f" transform="translate(531.884766 0)"/>
      <use xlink:href="#DejaVuSans-Bold-63" transform="translate(600.585938 0)"/>
      <use xlink:href="#DejaVuSans-Bold-65" transform="translate(659.863281 0)"/>
      <use xlink:href="#DejaVuSans-Bold-73" transform="translate(727.685547 0)"/>
      <use xlink:href="#DejaVuSans-Bold-73" transform="translate(787.207031 0)"/>
      <use xlink:href="#DejaVuSans-Bold-43" transform="translate(846.728516 0)"/>
      <use xlink:href="#DejaVuSans-Bold-6f" transform="translate(920.117188 0)"/>
      <use xlink:href="#DejaVuSans-Bold-6e" transform="translate(988.818359 0)"/>
      <use xlink:href="#DejaVuSans-Bold-74" transform="translate(1060.009766 0)"/>
      <use xlink:href="#DejaVuSans-Bold-72" transform="translate(1107.8125 0)"/>
      <use xlink:href="#DejaVuSans-Bold-6f" transform="translate(1157.128906 0)"/>
      <use xlink:href="#DejaVuSans-Bold-6c" transform="translate(1225.830078 0)"/>
     </g>
    </g>
   </g>
   <g id="text_17">
    <g clip-path="url(#pb5822b3b6c)">
     <!-- Supply_Conveyor -->
     <g transform="translate(407.642313 717.901209) scale(0.08 -0.08)">
      <defs>
       <path id="DejaVuSans-Bold-70" d="M 1656 506 
L 1656 -1331 
L 538 -1331 
L 538 3500 
L 1656 3500 
L 1656 2988 
Q 1888 3294 2169 3439 
Q 2450 3584 2816 3584 
Q 3463 3584 3878 3070 
Q 4294 2556 4294 1747 
Q 4294 938 3878 423 
Q 3463 -91 2816 -91 
Q 2450 -91 2169 54 
Q 1888 200 1656 506 
z
M 2400 2772 
Q 2041 2772 1848 2508 
Q 1656 2244 1656 1747 
Q 1656 1250 1848 986 
Q 2041 722 2400 722 
Q 2759 722 2948 984 
Q 3138 1247 3138 1747 
Q 3138 2247 2948 2509 
Q 2759 2772 2400 2772 
z
" transform="scale(0.015625)"/>
      </defs>
      <use xlink:href="#DejaVuSans-Bold-53"/>
      <use xlink:href="#DejaVuSans-Bold-75" transform="translate(72.021484 0)"/>
      <use xlink:href="#DejaVuSans-Bold-70" transform="translate(143.212891 0)"/>
      <use xlink:href="#DejaVuSans-Bold-70" transform="translate(214.794922 0)"/>
      <use xlink:href="#DejaVuSans-Bold-6c" transform="translate(286.376953 0)"/>
      <use xlink:href="#DejaVuSans-Bold-79" transform="translate(320.654297 0)"/>
      <use xlink:href="#DejaVuSans-Bold-5f" transform="translate(385.839844 0)"/>
      <use xlink:href="#DejaVuSans-Bold-43" transform="translate(435.839844 0)"/>
      <use xlink:href="#DejaVuSans-Bold-6f" transform="translate(509.228516 0)"/>
      <use xlink:href="#DejaVuSans-Bold-6e" transform="translate(577.929688 0)"/>
      <use xlink:href="#DejaVuSans-Bold-76" transform="translate(649.121094 0)"/>
      <use xlink:href="#DejaVuSans-Bold-65" transform="translate(714.306641 0)"/>
      <use xlink:href="#DejaVuSans-Bold-79" transform="translate(782.128906 0)"/>
      <use xlink:href="#DejaVuSans-Bold-6f" transform="translate(847.314453 0)"/>
      <use xlink:href="#DejaVuSans-Bold-72" transform="translate(916.015625 0)"/>
     </g>
    </g>
   </g>
   <g id="text_18">
    <g clip-path="url(#pb5822b3b6c)">
     <!-- TimeLeftCalcuation -->
     <g transform="translate(110.80951 478.948423) scale(0.08 -0.08)">
      <defs>
       <path id="DejaVuSans-Bold-4c" d="M 588 4666 
L 1791 4666 
L 1791 909 
L 3903 909 
L 3903 0 
L 588 0 
L 588 4666 
z
" transform="scale(0.015625)"/>
       <path id="DejaVuSans-Bold-66" d="M 2841 4863 
L 2841 4128 
L 2222 4128 
Q 1984 4128 1890 4042 
Q 1797 3956 1797 3744 
L 1797 3500 
L 2753 3500 
L 2753 2700 
L 1797 2700 
L 1797 0 
L 678 0 
L 678 2700 
L 122 2700 
L 122 3500 
L 678 3500 
L 678 3744 
Q 678 4316 997 4589 
Q 1316 4863 1984 4863 
L 2841 4863 
z
" transform="scale(0.015625)"/>
      </defs>
      <use xlink:href="#DejaVuSans-Bold-54"/>
      <use xlink:href="#DejaVuSans-Bold-69" transform="translate(68.212891 0)"/>
      <use xlink:href="#DejaVuSans-Bold-6d" transform="translate(102.490234 0)"/>
      <use xlink:href="#DejaVuSans-Bold-65" transform="translate(206.689453 0)"/>
      <use xlink:href="#DejaVuSans-Bold-4c" transform="translate(274.511719 0)"/>
      <use xlink:href="#DejaVuSans-Bold-65" transform="translate(338.232422 0)"/>
      <use xlink:href="#DejaVuSans-Bold-66" transform="translate(406.054688 0)"/>
      <use xlink:href="#DejaVuSans-Bold-74" transform="translate(449.560547 0)"/>
      <use xlink:href="#DejaVuSans-Bold-43" transform="translate(497.363281 0)"/>
      <use xlink:href="#DejaVuSans-Bold-61" transform="translate(570.751953 0)"/>
      <use xlink:href="#DejaVuSans-Bold-6c" transform="translate(638.232422 0)"/>
      <use xlink:href="#DejaVuSans-Bold-63" transform="translate(672.509766 0)"/>
      <use xlink:href="#DejaVuSans-Bold-75" transform="translate(731.787109 0)"/>
      <use xlink:href="#DejaVuSans-Bold-61" transform="translate(802.978516 0)"/>
      <use xlink:href="#DejaVuSans-Bold-74" transform="translate(870.458984 0)"/>
      <use xlink:href="#DejaVuSans-Bold-69" transform="translate(918.261719 0)"/>
      <use xlink:href="#DejaVuSans-Bold-6f" transform="translate(952.539062 0)"/>
      <use xlink:href="#DejaVuSans-Bold-6e" transform="translate(1021.240234 0)"/>
     </g>
    </g>
   </g>
   <g id="text_19">
    <g clip-path="url(#pb5822b3b6c)">
     <!-- Work_Station -->
     <g transform="translate(612.4072 417.707822) scale(0.08 -0.08)">
      <defs>
       <path id="DejaVuSans-Bold-57" d="M 191 4666 
L 1344 4666 
L 2150 1275 
L 2950 4666 
L 4109 4666 
L 4909 1275 
L 5716 4666 
L 6859 4666 
L 5759 0 
L 4372 0 
L 3525 3547 
L 2688 0 
L 1300 0 
L 191 4666 
z
" transform="scale(0.015625)"/>
       <path id="DejaVuSans-Bold-6b" d="M 538 4863 
L 1656 4863 
L 1656 2216 
L 2944 3500 
L 4244 3500 
L 2534 1894 
L 4378 0 
L 3022 0 
L 1656 1459 
L 1656 0 
L 538 0 
L 538 4863 
z
" transform="scale(0.015625)"/>
      </defs>
      <use xlink:href="#DejaVuSans-Bold-57"/>
      <use xlink:href="#DejaVuSans-Bold-6f" transform="translate(106.677734 0)"/>
      <use xlink:href="#DejaVuSans-Bold-72" transform="translate(175.378906 0)"/>
      <use xlink:href="#DejaVuSans-Bold-6b" transform="translate(224.695312 0)"/>
      <use xlink:href="#DejaVuSans-Bold-5f" transform="translate(291.199219 0)"/>
      <use xlink:href="#DejaVuSans-Bold-53" transform="translate(341.199219 0)"/>
      <use xlink:href="#DejaVuSans-Bold-74" transform="translate(413.220703 0)"/>
      <use xlink:href="#DejaVuSans-Bold-61" transform="translate(461.023438 0)"/>
      <use xlink:href="#DejaVuSans-Bold-74" transform="translate(528.503906 0)"/>
      <use xlink:href="#DejaVuSans-Bold-69" transform="translate(576.306641 0)"/>
      <use xlink:href="#DejaVuSans-Bold-6f" transform="translate(610.583984 0)"/>
      <use xlink:href="#DejaVuSans-Bold-6e" transform="translate(679.285156 0)"/>
     </g>
    </g>
   </g>
   <g id="text_20">
    <!-- PLC Global Call Graph (OB/FB/FC) -->
    <g transform="translate(422.989531 21.6) scale(0.14 -0.14)">
     <defs>
      <path id="DejaVuSans-50" d="M 1259 4147 
L 1259 2394 
L 2053 2394 
Q 2494 2394 2734 2622 
Q 2975 2850 2975 3272 
Q 2975 3691 2734 3919 
Q 2494 4147 2053 4147 
L 1259 4147 
z
M 628 4666 
L 2053 4666 
Q 2838 4666 3239 4311 
Q 3641 3956 3641 3272 
Q 3641 2581 3239 2228 
Q 2838 1875 2053 1875 
L 1259 1875 
L 1259 0 
L 628 0 
L 628 4666 
z
" transform="scale(0.015625)"/>
      <path id="DejaVuSans-4c" d="M 628 4666 
L 1259 4666 
L 1259 531 
L 3531 531 
L 3531 0 
L 628 0 
L 628 4666 
z
" transform="scale(0.015625)"/>
      <path id="DejaVuSans-47" d="M 3809 666 
L 3809 1919 
L 2778 1919 
L 2778 2438 
L 4434 2438 
L 4434 434 
Q 4069 175 3628 42 
Q 3188 -91 2688 -91 
Q 1594 -91 976 548 
Q 359 1188 359 2328 
Q 359 3472 976 4111 
Q 1594 4750 2688 4750 
Q 3144 4750 3555 4637 
Q 3966 4525 4313 4306 
L 4313 3634 
Q 3963 3931 3569 4081 
Q 3175 4231 2741 4231 
Q 1884 4231 1454 3753 
Q 1025 3275 1025 2328 
Q 1025 1384 1454 906 
Q 1884 428 2741 428 
Q 3075 428 3337 486 
Q 3600 544 3809 666 
z
" transform="scale(0.015625)"/>
      <path id="DejaVuSans-6c" d="M 603 4863 
L 1178 4863 
L 1178 0 
L 603 0 
L 603 4863 
z
" transform="scale(0.015625)"/>
      <path id="DejaVuSans-6f" d="M 1959 3097 
Q 1497 3097 1228 2736 
Q 959 2375 959 1747 
Q 959 1119 1226 758 
Q 1494 397 1959 397 
Q 2419 397 2687 759 
Q 2956 1122 2956 1747 
Q 2956 2369 2687 2733 
Q 2419 3097 1959 3097 
z
M 1959 3584 
Q 2709 3584 3137 3096 
Q 3566 2609 3566 1747 
Q 3566 888 3137 398 
Q 2709 -91 1959 -91 
Q 1206 -91 779 398 
Q 353 888 353 1747 
Q 353 2609 779 3096 
Q 1206 3584 1959 3584 
z
" transform="scale(0.015625)"/>
      <path id="DejaVuSans-62" d="M 3116 1747 
Q 3116 2381 2855 2742 
Q 2594 3103 2138 3103 
Q 1681 3103 1420 2742 
Q 1159 2381 1159 1747 
Q 1159 1113 1420 752 
Q 1681 391 2138 391 
Q 2594 391 2855 752 
Q 3116 1113 3116 1747 
z
M 1159 2969 
Q 1341 3281 1617 3432 
Q 1894 3584 2278 3584 
Q 2916 3584 3314 3078 
Q 3713 2572 3713 1747 
Q 3713 922 3314 415 
Q 2916 -91 2278 -91 
Q 1894 -91 1617 61 
Q 1341 213 1159 525 
L 1159 0 
L 581 0 
L 581 4863 
L 1159 4863 
L 1159 2969 
z
" transform="scale(0.015625)"/>
      <path id="DejaVuSans-61" d="M 2194 1759 
Q 1497 1759 1228 1600 
Q 959 1441 959 1056 
Q 959 750 1161 570 
Q 1363 391 1709 391 
Q 2188 391 2477 730 
Q 2766 1069 2766 1631 
L 2766 1759 
L 2194 1759 
z
M 3341 1997 
L 3341 0 
L 2766 0 
L 2766 531 
Q 2569 213 2275 61 
Q 1981 -91 1556 -91 
Q 1019 -91 701 211 
Q 384 513 384 1019 
Q 384 1609 779 1909 
Q 1175 2209 1959 2209 
L 2766 2209 
L 2766 2266 
Q 2766 2663 2505 2880 
Q 2244 3097 1772 3097 
Q 1472 3097 1187 3025 
Q 903 2953 641 2809 
L 641 3341 
Q 956 3463 1253 3523 
Q 1550 3584 1831 3584 
Q 2591 3584 2966 3190 
Q 3341 2797 3341 1997 
z
" transform="scale(0.015625)"/>
      <path id="DejaVuSans-72" d="M 2631 2963 
Q 2534 3019 2420 3045 
Q 2306 3072 2169 3072 
Q 1681 3072 1420 2755 
Q 1159 2438 1159 1844 
L 1159 0 
L 581 0 
L 581 3500 
L 1159 3500 
L 1159 2956 
Q 1341 3275 1631 3429 
Q 1922 3584 2338 3584 
Q 2397 3584 2469 3576 
Q 2541 3569 2628 3553 
L 2631 2963 
z
" transform="scale(0.015625)"/>
      <path id="DejaVuSans-70" d="M 1159 525 
L 1159 -1331 
L 581 -1331 
L 581 3500 
L 1159 3500 
L 1159 2969 
Q 1341 3281 1617 3432 
Q 1894 3584 2278 3584 
Q 2916 3584 3314 3078 
Q 3713 2572 3713 1747 
Q 3713 922 3314 415 
Q 2916 -91 2278 -91 
Q 1894 -91 1617 61 
Q 1341 213 1159 525 
z
M 3116 1747 
Q 3116 2381 2855 2742 
Q 2594 3103 2138 3103 
Q 1681 3103 1420 2742 
Q 1159 2381 1159 1747 
Q 1159 1113 1420 752 
Q 1681 391 2138 391 
Q 2594 391 2855 752 
Q 3116 1113 3116 1747 
z
" transform="scale(0.015625)"/>
      <path id="DejaVuSans-68" d="M 3513 2113 
L 3513 0 
L 2938 0 
L 2938 2094 
Q 2938 2591 2744 2837 
Q 2550 3084 2163 3084 
Q 1697 3084 1428 2787 
Q 1159 2491 1159 1978 
L 1159 0 
L 581 0 
L 581 4863 
L 1159 4863 
L 1159 2956 
Q 1366 3272 1645 3428 
Q 1925 3584 2291 3584 
Q 2894 3584 3203 3211 
Q 3513 2838 3513 2113 
z
" transform="scale(0.015625)"/>
      <path id="DejaVuSans-28" d="M 1984 4856 
Q 1566 4138 1362 3434 
Q 1159 2731 1159 2009 
Q 1159 1288 1364 580 
Q 1569 -128 1984 -844 
L 1484 -844 
Q 1016 -109 783 600 
Q 550 1309 550 2009 
Q 550 2706 781 3412 
Q 1013 4119 1484 4856 
L 1984 4856 
z
" transform="scale(0.015625)"/>
      <path id="DejaVuSans-4f" d="M 2522 4238 
Q 1834 4238 1429 3725 
Q 1025 3213 1025 2328 
Q 1025 1447 1429 934 
Q 1834 422 2522 422 
Q 3209 422 3611 934 
Q 4013 1447 4013 2328 
Q 4013 3213 3611 3725 
Q 3209 4238 2522 4238 
z
M 2522 4750 
Q 3503 4750 4090 4092 
Q 4678 3434 4678 2328 
Q 4678 1225 4090 567 
Q 3503 -91 2522 -91 
Q 1538 -91 948 565 
Q 359 1222 359 2328 
Q 359 3434 948 4092 
Q 1538 4750 2522 4750 
z
" transform="scale(0.015625)"/>
      <path id="DejaVuSans-2f" d="M 1625 4666 
L 2156 4666 
L 531 -594 
L 0 -594 
L 1625 4666 
z
" transform="scale(0.015625)"/>
      <path id="DejaVuSans-29" d="M 513 4856 
L 1013 4856 
Q 1481 4119 1714 3412 
Q 1947 2706 1947 2009 
Q 1947 1309 1714 600 
Q 1481 -109 1013 -844 
L 513 -844 
Q 928 -128 1133 580 
Q 1338 1288 1338 2009 
Q 1338 2731 1133 3434 
Q 928 4138 513 4856 
z
" transform="scale(0.015625)"/>
     </defs>
     <use xlink:href="#DejaVuSans-50"/>
     <use xlink:href="#DejaVuSans-4c" transform="translate(60.302734 0)"/>
     <use xlink:href="#DejaVuSans-43" transform="translate(116.015625 0)"/>
     <use xlink:href="#DejaVuSans-20" transform="translate(185.839844 0)"/>
     <use xlink:href="#DejaVuSans-47" transform="translate(217.626953 0)"/>
     <use xlink:href="#DejaVuSans-6c" transform="translate(295.117188 0)"/>
     <use xlink:href="#DejaVuSans-6f" transform="translate(322.900391 0)"/>
     <use xlink:href="#DejaVuSans-62" transform="translate(384.082031 0)"/>
     <use xlink:href="#DejaVuSans-61" transform="translate(447.558594 0)"/>
     <use xlink:href="#DejaVuSans-6c" transform="translate(508.837891 0)"/>
     <use xlink:href="#DejaVuSans-20" transform="translate(536.621094 0)"/>
     <use xlink:href="#DejaVuSans-43" transform="translate(568.408203 0)"/>
     <use xlink:href="#DejaVuSans-61" transform="translate(638.232422 0)"/>
     <use xlink:href="#DejaVuSans-6c" transform="translate(699.511719 0)"/>
     <use xlink:href="#DejaVuSans-6c" transform="translate(727.294922 0)"/>
     <use xlink:href="#DejaVuSans-20" transform="translate(755.078125 0)"/>
     <use xlink:href="#DejaVuSans-47" transform="translate(786.865234 0)"/>
     <use xlink:href="#DejaVuSans-72" transform="translate(864.355469 0)"/>
     <use xlink:href="#DejaVuSans-61" transform="translate(905.46875 0)"/>
     <use xlink:href="#DejaVuSans-70" transform="translate(966.748047 0)"/>
     <use xlink:href="#DejaVuSans-68" transform="translate(1030.224609 0)"/>
     <use xlink:href="#DejaVuSans-20" transform="translate(1093.603516 0)"/>
     <use xlink:href="#DejaVuSans-28" transform="translate(1125.390625 0)"/>
     <use xlink:href="#DejaVuSans-4f" transform="translate(1164.404297 0)"/>
     <use xlink:href="#DejaVuSans-42" transform="translate(1243.115234 0)"/>
     <use xlink:href="#DejaVuSans-2f" transform="translate(1311.71875 0)"/>
     <use xlink:href="#DejaVuSans-46" transform="translate(1345.410156 0)"/>
     <use xlink:href="#DejaVuSans-42" transform="translate(1402.929688 0)"/>
     <use xlink:href="#DejaVuSans-2f" transform="translate(1471.533203 0)"/>
     <use xlink:href="#DejaVuSans-46" transform="translate(1505.224609 0)"/>
     <use xlink:href="#DejaVuSans-43" transform="translate(1562.744141 0)"/>
     <use xlink:href="#DejaVuSans-29" transform="translate(1632.568359 0)"/>
    </g>
   </g>
  </g>
 </g>
 <defs>
  <clipPath id="pb5822b3b6c">
   <rect x="10.8" y="27.6" width="1058.4" height="753.6"/>
  </clipPath>
 </defs>
</svg>
